<svg width="41" height="16" viewBox="0 0 41 16" fill="none" xmlns="http://www.w3.org/2000/svg">
<path d="M7.49166 2.05848C7.01123 2.6005 6.24255 3.02681 5.47386 2.96591C5.37777 2.23509 5.75571 1.45555 6.19771 0.980514C6.67813 0.426313 7.51729 0.030437 8.2027 0C8.27957 0.755176 7.96569 1.50428 7.49166 2.05848ZM8.18989 3.10597C7.07529 3.0449 6.12084 3.7089 5.59557 3.7089C5.05749 3.7089 4.25037 3.13644 3.36638 3.1547C2.21975 3.17419 1.1564 3.78806 0.573481 4.76858C-0.630795 6.73571 0.259602 9.64071 1.42544 11.2424C1.99555 12.0342 2.67456 12.905 3.57136 12.8746C4.42332 12.8453 4.75642 12.3508 5.78133 12.3508C6.81265 12.3508 7.11372 12.8746 8.01053 12.8624C8.93936 12.8429 9.52228 12.0707 10.0924 11.2789C10.7394 10.3776 11.0084 9.50672 11.0212 9.45802C11.002 9.43853 9.22761 8.79419 9.2084 6.84534C9.18919 5.21318 10.6112 4.43971 10.6753 4.39099C9.87459 3.25822 8.62547 3.13644 8.18989 3.10597ZM14.6212 0.901352V12.771H16.5622V8.71499H19.2462C21.6996 8.71499 23.4163 7.1133 23.4163 4.79904C23.4163 2.48479 21.7252 0.901352 19.3102 0.901352H14.6212ZM16.5622 2.45432H18.7978C20.4825 2.45432 21.4433 3.30695 21.4433 4.80512C21.4433 6.30332 20.4825 7.1681 18.7914 7.1681H16.5622V2.45432ZM26.9522 12.8624C28.1693 12.8624 29.2967 12.2778 29.8092 11.346H29.8476V12.771H31.6412V6.8636C31.6412 5.15227 30.2 4.04387 27.9836 4.04387C25.9273 4.04387 24.4028 5.16445 24.3451 6.69917H26.0939C26.2412 5.96835 26.9523 5.48724 27.9259 5.48724C29.111 5.48724 29.7772 6.01097 29.7772 6.9793V7.63706L27.3558 7.77707C25.1074 7.90505 23.8903 8.78194 23.8903 10.3045C23.8967 11.8392 25.1522 12.8624 26.9522 12.8624ZM27.4775 11.4556C26.4462 11.4556 25.7864 10.9806 25.7864 10.2619C25.7864 9.51282 26.4206 9.08043 27.6313 9.01342L29.7836 8.88544V9.55534C29.7836 10.6638 28.7907 11.4556 27.4775 11.4556ZM34.0434 15.9988C35.9331 15.9988 36.8235 15.3106 37.5986 13.2339L41 4.15958H39.027L36.7466 11.1693H36.7082L34.4277 4.15958H32.4035L35.6832 12.8015L35.5039 13.3252C35.2092 14.2144 34.7288 14.5616 33.8704 14.5616C33.7167 14.5616 33.422 14.5421 33.3003 14.5323V15.9574C33.4156 15.9802 33.8961 15.9988 34.0434 15.9988Z" fill="black"/>
</svg>
