<svg width="13" height="14" viewBox="0 0 13 14" fill="none" xmlns="http://www.w3.org/2000/svg">
<path d="M11 6.625H2.25C1.55964 6.625 1 7.18464 1 7.875V12.25C1 12.9404 1.55964 13.5 2.25 13.5H11C11.6904 13.5 12.25 12.9404 12.25 12.25V7.875C12.25 7.18464 11.6904 6.625 11 6.625Z" stroke="#C48E70" stroke-linecap="round" stroke-linejoin="round"/>
<path d="M3.5 6.625V4.125C3.5 3.2962 3.82924 2.50134 4.41529 1.91529C5.00134 1.32924 5.7962 1 6.625 1C7.4538 1 8.24866 1.32924 8.83471 1.91529C9.42076 2.50134 9.75 3.2962 9.75 4.125V6.625" stroke="#C48E70" stroke-linecap="round" stroke-linejoin="round"/>
</svg>
