<svg width="33" height="20" viewBox="0 0 33 20" fill="none" xmlns="http://www.w3.org/2000/svg">
<path d="M20.5449 17.2646H12.0254V2.0676H20.5449V17.2646Z" fill="#FF5F00"/>
<path d="M12.571 9.665C12.571 6.58219 14.0252 3.83608 16.2898 2.06645C14.6337 0.77239 12.5438 0 10.2723 0C4.89508 0 0.536133 4.32711 0.536133 9.665C0.536133 15.0028 4.89508 19.3299 10.2723 19.3299C12.5438 19.3299 14.6337 18.5575 16.2898 17.2635C14.0252 15.4938 12.571 12.7477 12.571 9.665Z" fill="#EB001B"/>
<path d="M32.0345 9.665C32.0345 15.0028 27.6756 19.3299 22.2983 19.3299C20.0269 19.3299 17.9369 18.5575 16.2803 17.2635C18.5455 15.4938 19.9996 12.7477 19.9996 9.665C19.9996 6.58219 18.5455 3.83608 16.2803 2.06645C17.9369 0.77239 20.0269 0 22.2983 0C27.6756 0 32.0345 4.32711 32.0345 9.665Z" fill="#F79E1B"/>
</svg>
