<svg width="244" height="150" viewBox="0 0 244 150" fill="none" xmlns="http://www.w3.org/2000/svg">
<mask id="mask0_548_10774" style="mask-type:luminance" maskUnits="userSpaceOnUse" x="-37" y="0" width="281" height="150">
<path d="M-37 0L-37 150L244 150V0L-37 0Z" fill="white"/>
</mask>
<g mask="url(#mask0_548_10774)">
<path d="M-23.0891 118.287L-33.6349 129.026C-33.6349 129.026 -33.7144 129.238 -33.6349 129.318L-23.0891 140.057C-23.0891 140.057 -22.8771 140.136 -22.8241 140.057L-14.9811 132.075C-14.9811 132.075 -14.7691 131.996 -14.7161 132.075L-6.87299 140.057C-6.87299 140.057 -6.66102 140.136 -6.60802 140.057L3.93776 129.318C3.93776 129.318 4.01725 129.106 3.93776 129.026L-6.60802 118.287C-6.60802 118.287 -6.82 118.208 -6.87299 118.287L-14.7161 126.268C-14.7161 126.268 -14.9281 126.348 -14.9811 126.268L-22.8241 118.287C-22.8241 118.287 -23.0361 118.208 -23.0891 118.287Z" stroke="white" stroke-miterlimit="10"/>
<path d="M-23.1156 75.9149L-33.6614 86.6538C-33.6614 86.6538 -33.7409 86.8659 -33.6614 86.9455L-23.1156 97.6844C-23.1156 97.6844 -22.9036 97.7639 -22.8506 97.6844L-15.0075 89.7031C-15.0075 89.7031 -14.7956 89.6236 -14.7426 89.7031L-6.89948 97.6844C-6.89948 97.6844 -6.68751 97.7639 -6.63451 97.6844L3.91126 86.9455C3.91126 86.9455 3.99076 86.7333 3.91126 86.6538L-6.63451 75.9149C-6.63451 75.9149 -6.84649 75.8353 -6.89948 75.9149L-14.7426 83.8961C-14.7426 83.8961 -14.9545 83.9757 -15.0075 83.8961L-22.8506 75.9149C-22.8506 75.9149 -23.0626 75.8353 -23.1156 75.9149Z" stroke="white" stroke-miterlimit="10"/>
<path d="M22.3266 136.106L18.67 139.818C18.67 139.818 18.617 139.818 18.5905 139.818L14.934 136.106C14.934 136.106 14.934 136.053 14.934 136.026L18.5905 132.314C18.5905 132.314 18.6435 132.314 18.67 132.314L22.3266 136.026C22.3266 136.026 22.3266 136.079 22.3266 136.106Z" stroke="white" stroke-miterlimit="10"/>
<path d="M14.2451 150.504L10.5885 154.216C10.5885 154.216 10.5355 154.216 10.509 154.216L6.85242 150.504C6.85242 150.504 6.85242 150.451 6.85242 150.424L10.509 146.712C10.509 146.712 10.562 146.712 10.5885 146.712L14.2451 150.424C14.2451 150.424 14.2451 150.477 14.2451 150.504Z" stroke="white" stroke-miterlimit="10"/>
<path d="M30.5937 150.504L26.9371 154.216C26.9371 154.216 26.8841 154.216 26.8576 154.216L23.201 150.504C23.201 150.504 23.201 150.451 23.201 150.424L26.8576 146.712C26.8576 146.712 26.9106 146.712 26.9371 146.712L30.5937 150.424C30.5937 150.424 30.5937 150.477 30.5937 150.504Z" stroke="white" stroke-miterlimit="10"/>
<path d="M10.403 139.473L-0.142771 150.212C-0.142771 150.212 -0.222262 150.424 -0.142771 150.504L10.403 161.243C10.403 161.243 10.615 161.322 10.668 161.243L18.5111 153.261C18.5111 153.261 18.723 153.182 18.776 153.261L26.6191 161.243C26.6191 161.243 26.8311 161.322 26.8841 161.243L37.4299 150.504C37.4299 150.504 37.5094 150.292 37.4299 150.212L26.8841 139.473C26.8841 139.473 26.6721 139.394 26.6191 139.473L18.776 147.454C18.776 147.454 18.5641 147.534 18.5111 147.454L10.668 139.473C10.668 139.473 10.456 139.394 10.403 139.473Z" stroke="white" stroke-miterlimit="10"/>
<path d="M22.2736 122.503L18.617 126.215C18.617 126.215 18.5641 126.215 18.5376 126.215L14.881 122.503C14.881 122.503 14.881 122.45 14.881 122.424L18.5376 118.711C18.5376 118.711 18.5906 118.711 18.617 118.711L22.2736 122.424C22.2736 122.424 22.2736 122.477 22.2736 122.503Z" stroke="white" stroke-miterlimit="10"/>
<path d="M22.2736 93.76L18.617 97.4722C18.617 97.4722 18.5641 97.4722 18.5376 97.4722L14.881 93.76C14.881 93.76 14.881 93.707 14.881 93.6805L18.5376 89.9683C18.5376 89.9683 18.5906 89.9683 18.617 89.9683L22.2736 93.6805C22.2736 93.6805 22.2736 93.7335 22.2736 93.76Z" stroke="white" stroke-miterlimit="10"/>
<path d="M14.1921 108.132L10.5355 111.844C10.5355 111.844 10.4825 111.844 10.456 111.844L6.79944 108.132C6.79944 108.132 6.79944 108.079 6.79944 108.052L10.456 104.34C10.456 104.34 10.509 104.34 10.5355 104.34L14.1921 108.052C14.1921 108.052 14.1921 108.105 14.1921 108.132Z" stroke="white" stroke-miterlimit="10"/>
<path d="M30.5407 108.132L26.8841 111.844C26.8841 111.844 26.8311 111.844 26.8046 111.844L23.1481 108.132C23.1481 108.132 23.1481 108.079 23.1481 108.052L26.8046 104.34C26.8046 104.34 26.8576 104.34 26.8841 104.34L30.5407 108.052C30.5407 108.052 30.5407 108.105 30.5407 108.132Z" stroke="white" stroke-miterlimit="10"/>
<path d="M10.35 97.101L-0.19575 107.84C-0.19575 107.84 -0.275241 108.052 -0.19575 108.132L10.35 118.871C10.35 118.871 10.562 118.95 10.615 118.871L18.4581 110.889C18.4581 110.889 18.6701 110.81 18.7231 110.889L26.5662 118.871C26.5662 118.871 26.7781 118.95 26.8311 118.871L37.3769 108.132C37.3769 108.132 37.4564 107.919 37.3769 107.84L26.8311 97.101C26.8311 97.101 26.6191 97.0215 26.5662 97.101L18.7231 105.082C18.7231 105.082 18.5111 105.162 18.4581 105.082L10.615 97.101C10.615 97.101 10.403 97.0215 10.35 97.101Z" stroke="white" stroke-miterlimit="10"/>
<path d="M55.8453 143.689L52.1887 147.401C52.1887 147.401 52.1357 147.401 52.1092 147.401L48.4526 143.689C48.4526 143.689 48.4526 143.636 48.4526 143.61L52.1092 139.897C52.1092 139.897 52.1622 139.897 52.1887 139.897L55.8453 143.61C55.8453 143.61 55.8453 143.663 55.8453 143.689Z" stroke="white" stroke-miterlimit="10"/>
<path d="M55.8453 114.946L52.1887 118.658C52.1887 118.658 52.1357 118.658 52.1092 118.658L48.4526 114.946C48.4526 114.946 48.4526 114.893 48.4526 114.867L52.1092 111.154C52.1092 111.154 52.1622 111.154 52.1887 111.154L55.8453 114.867C55.8453 114.867 55.8453 114.92 55.8453 114.946Z" stroke="white" stroke-miterlimit="10"/>
<path d="M47.7637 129.318L44.1071 133.03C44.1071 133.03 44.0541 133.03 44.0276 133.03L40.371 129.318C40.371 129.318 40.371 129.265 40.371 129.238L44.0276 125.526C44.0276 125.526 44.0806 125.526 44.1071 125.526L47.7637 129.238C47.7637 129.238 47.7637 129.291 47.7637 129.318Z" stroke="white" stroke-miterlimit="10"/>
<path d="M64.1123 129.318L60.4557 133.03C60.4557 133.03 60.4027 133.03 60.3762 133.03L56.7197 129.318C56.7197 129.318 56.7197 129.265 56.7197 129.238L60.3762 125.526C60.3762 125.526 60.4292 125.526 60.4557 125.526L64.1123 129.238C64.1123 129.238 64.1123 129.291 64.1123 129.318Z" stroke="white" stroke-miterlimit="10"/>
<path d="M43.9216 118.287L33.3758 129.026C33.3758 129.026 33.2964 129.238 33.3758 129.318L43.9216 140.057C43.9216 140.057 44.1336 140.136 44.1866 140.057L52.0297 132.075C52.0297 132.075 52.2417 131.996 52.2947 132.075L60.1377 140.057C60.1377 140.057 60.3497 140.136 60.4027 140.057L70.9485 129.318C70.9485 129.318 71.028 129.106 70.9485 129.026L60.4027 118.287C60.4027 118.287 60.1907 118.208 60.1377 118.287L52.2947 126.268C52.2947 126.268 52.0827 126.348 52.0297 126.268L44.1866 118.287C44.1866 118.287 43.9746 118.208 43.9216 118.287Z" stroke="white" stroke-miterlimit="10"/>
<path d="M55.7922 101.317L52.1357 105.029C52.1357 105.029 52.0827 105.029 52.0562 105.029L48.3996 101.317C48.3996 101.317 48.3996 101.264 48.3996 101.237L52.0562 97.5253C52.0562 97.5253 52.1092 97.5253 52.1357 97.5253L55.7922 101.237C55.7922 101.237 55.7922 101.291 55.7922 101.317Z" stroke="white" stroke-miterlimit="10"/>
<path d="M55.7922 72.5739L52.1357 76.2861C52.1357 76.2861 52.0827 76.2861 52.0562 76.2861L48.3996 72.5739C48.3996 72.5739 48.3996 72.5208 48.3996 72.4943L52.0562 68.7821C52.0562 68.7821 52.1092 68.7821 52.1357 68.7821L55.7922 72.4943C55.7922 72.4943 55.7922 72.5474 55.7922 72.5739Z" stroke="white" stroke-miterlimit="10"/>
<path d="M47.7107 86.9454L44.0541 90.6577C44.0541 90.6577 44.0011 90.6577 43.9746 90.6577L40.3181 86.9454C40.3181 86.9454 40.3181 86.8924 40.3181 86.8659L43.9746 83.1537C43.9746 83.1537 44.0276 83.1537 44.0541 83.1537L47.7107 86.8659C47.7107 86.8659 47.7107 86.9189 47.7107 86.9454Z" stroke="white" stroke-miterlimit="10"/>
<path d="M64.0593 86.9454L60.4028 90.6577C60.4028 90.6577 60.3498 90.6577 60.3233 90.6577L56.6667 86.9454C56.6667 86.9454 56.6667 86.8924 56.6667 86.8659L60.3233 83.1537C60.3233 83.1537 60.3763 83.1537 60.4028 83.1537L64.0593 86.8659C64.0593 86.8659 64.0593 86.9189 64.0593 86.9454Z" stroke="white" stroke-miterlimit="10"/>
<path d="M43.8686 75.9149L33.3229 86.6538C33.3229 86.6538 33.2434 86.8659 33.3229 86.9455L43.8686 97.6844C43.8686 97.6844 44.0806 97.7639 44.1336 97.6844L51.9767 89.7031C51.9767 89.7031 52.1887 89.6236 52.2417 89.7031L60.0848 97.6844C60.0848 97.6844 60.2967 97.7639 60.3497 97.6844L70.8955 86.9455C70.8955 86.9455 70.975 86.7333 70.8955 86.6538L60.3497 75.9149C60.3497 75.9149 60.1378 75.8353 60.0848 75.9149L52.2417 83.8961C52.2417 83.8961 52.0297 83.9757 51.9767 83.8961L44.1336 75.9149C44.1336 75.9149 43.9216 75.8353 43.8686 75.9149Z" stroke="white" stroke-miterlimit="10"/>
<path d="M89.2049 136.026L85.5483 139.738C85.5483 139.738 85.4953 139.738 85.4688 139.738L81.8123 136.026C81.8123 136.026 81.8123 135.973 81.8123 135.947L85.4688 132.234C85.4688 132.234 85.5218 132.234 85.5483 132.234L89.2049 135.947C89.2049 135.947 89.2049 136 89.2049 136.026Z" stroke="white" stroke-miterlimit="10"/>
<path d="M81.1234 150.398L77.4668 154.11C77.4668 154.11 77.4138 154.11 77.3873 154.11L73.7307 150.398C73.7307 150.398 73.7307 150.345 73.7307 150.318L77.3873 146.606C77.3873 146.606 77.4403 146.606 77.4668 146.606L81.1234 150.318C81.1234 150.318 81.1234 150.371 81.1234 150.398Z" stroke="white" stroke-miterlimit="10"/>
<path d="M97.4985 150.398L93.8419 154.11C93.8419 154.11 93.7889 154.11 93.7624 154.11L90.1058 150.398C90.1058 150.398 90.1058 150.345 90.1058 150.318L93.7624 146.606C93.7624 146.606 93.8154 146.606 93.8419 146.606L97.4985 150.318C97.4985 150.318 97.4985 150.371 97.4985 150.398Z" stroke="white" stroke-miterlimit="10"/>
<path d="M77.2813 139.394L66.7355 150.133C66.7355 150.133 66.656 150.345 66.7355 150.424L77.2813 161.163C77.2813 161.163 77.4933 161.243 77.5463 161.163L85.3894 153.182C85.3894 153.182 85.6013 153.102 85.6543 153.182L93.4974 161.163C93.4974 161.163 93.7094 161.243 93.7624 161.163L104.308 150.424C104.308 150.424 104.388 150.212 104.308 150.133L93.7624 139.394C93.7624 139.394 93.5504 139.314 93.4974 139.394L85.6543 147.375C85.6543 147.375 85.4424 147.454 85.3894 147.375L77.5463 139.394C77.5463 139.394 77.3343 139.314 77.2813 139.394Z" stroke="white" stroke-miterlimit="10"/>
<path d="M89.1784 122.397L85.5218 126.109C85.5218 126.109 85.4688 126.109 85.4423 126.109L81.7858 122.397C81.7858 122.397 81.7858 122.344 81.7858 122.318L85.4423 118.605C85.4423 118.605 85.4953 118.605 85.5218 118.605L89.1784 122.318C89.1784 122.318 89.1784 122.371 89.1784 122.397Z" stroke="white" stroke-miterlimit="10"/>
<path d="M89.1784 93.6539L85.5218 97.3662C85.5218 97.3662 85.4688 97.3662 85.4423 97.3662L81.7858 93.6539C81.7858 93.6539 81.7858 93.6009 81.7858 93.5744L85.4423 89.8622C85.4423 89.8622 85.4953 89.8622 85.5218 89.8622L89.1784 93.5744C89.1784 93.5744 89.1784 93.6274 89.1784 93.6539Z" stroke="white" stroke-miterlimit="10"/>
<path d="M81.0969 108.026L77.4403 111.738C77.4403 111.738 77.3873 111.738 77.3608 111.738L73.7042 108.026C73.7042 108.026 73.7042 107.972 73.7042 107.946L77.3608 104.234C77.3608 104.234 77.4138 104.234 77.4403 104.234L81.0969 107.946C81.0969 107.946 81.0969 107.999 81.0969 108.026Z" stroke="white" stroke-miterlimit="10"/>
<path d="M97.4455 108.026L93.7889 111.738C93.7889 111.738 93.7359 111.738 93.7094 111.738L90.0529 108.026C90.0529 108.026 90.0529 107.972 90.0529 107.946L93.7094 104.234C93.7094 104.234 93.7624 104.234 93.7889 104.234L97.4455 107.946C97.4455 107.946 97.4455 107.999 97.4455 108.026Z" stroke="white" stroke-miterlimit="10"/>
<path d="M77.2548 97.0214L66.709 107.76C66.709 107.76 66.6295 107.972 66.709 108.052L77.2548 118.791C77.2548 118.791 77.4668 118.87 77.5198 118.791L85.3629 110.81C85.3629 110.81 85.5749 110.73 85.6278 110.81L93.4709 118.791C93.4709 118.791 93.6829 118.87 93.7359 118.791L104.282 108.052C104.282 108.052 104.361 107.84 104.282 107.76L93.7359 97.0214C93.7359 97.0214 93.5239 96.9419 93.4709 97.0214L85.6278 105.003C85.6278 105.003 85.4159 105.082 85.3629 105.003L77.5198 97.0214C77.5198 97.0214 77.3078 96.9419 77.2548 97.0214Z" stroke="white" stroke-miterlimit="10"/>
<path d="M122.883 143.451L119.226 147.163C119.226 147.163 119.173 147.163 119.146 147.163L115.49 143.451C115.49 143.451 115.49 143.398 115.49 143.371L119.146 139.659C119.146 139.659 119.199 139.659 119.226 139.659L122.883 143.371C122.883 143.371 122.883 143.424 122.883 143.451Z" stroke="white" stroke-miterlimit="10"/>
<path d="M122.883 114.708L119.226 118.42C119.226 118.42 119.173 118.42 119.146 118.42L115.49 114.708C115.49 114.708 115.49 114.654 115.49 114.628L119.146 110.916C119.146 110.916 119.199 110.916 119.226 110.916L122.883 114.628C122.883 114.628 122.883 114.681 122.883 114.708Z" stroke="white" stroke-miterlimit="10"/>
<path d="M114.801 129.079L111.144 132.791C111.144 132.791 111.091 132.791 111.065 132.791L107.408 129.079C107.408 129.079 107.408 129.026 107.408 129L111.065 125.287C111.065 125.287 111.118 125.287 111.144 125.287L114.801 129C114.801 129 114.801 129.053 114.801 129.079Z" stroke="white" stroke-miterlimit="10"/>
<path d="M131.15 129.079L127.493 132.791C127.493 132.791 127.44 132.791 127.414 132.791L123.757 129.079C123.757 129.079 123.757 129.026 123.757 129L127.414 125.287C127.414 125.287 127.467 125.287 127.493 125.287L131.15 129C131.15 129 131.15 129.053 131.15 129.079Z" stroke="white" stroke-miterlimit="10"/>
<path d="M110.959 118.049L100.413 128.787C100.413 128.787 100.334 129 100.413 129.079L110.959 139.818C110.959 139.818 111.171 139.898 111.224 139.818L119.067 131.837C119.067 131.837 119.279 131.757 119.332 131.837L127.175 139.818C127.175 139.818 127.387 139.898 127.44 139.818L137.986 129.079C137.986 129.079 138.065 128.867 137.986 128.787L127.44 118.049C127.44 118.049 127.228 117.969 127.175 118.049L119.332 126.03C119.332 126.03 119.12 126.109 119.067 126.03L111.224 118.049C111.224 118.049 111.012 117.969 110.959 118.049Z" stroke="white" stroke-miterlimit="10"/>
<path d="M122.829 101.078L119.173 104.791C119.173 104.791 119.12 104.791 119.093 104.791L115.437 101.078C115.437 101.078 115.437 101.025 115.437 100.999L119.093 97.2866C119.093 97.2866 119.146 97.2866 119.173 97.2866L122.829 100.999C122.829 100.999 122.829 101.052 122.829 101.078Z" stroke="white" stroke-miterlimit="10"/>
<path d="M122.829 72.3352L119.173 76.0474C119.173 76.0474 119.12 76.0474 119.093 76.0474L115.437 72.3352C115.437 72.3352 115.437 72.2822 115.437 72.2557L119.093 68.5435C119.093 68.5435 119.146 68.5435 119.173 68.5435L122.829 72.2557C122.829 72.2557 122.829 72.3087 122.829 72.3352Z" stroke="white" stroke-miterlimit="10"/>
<path d="M114.748 86.7068L111.091 90.419C111.091 90.419 111.038 90.419 111.012 90.419L107.355 86.7068C107.355 86.7068 107.355 86.6538 107.355 86.6272L111.012 82.915C111.012 82.915 111.065 82.915 111.091 82.915L114.748 86.6272C114.748 86.6272 114.748 86.6803 114.748 86.7068Z" stroke="white" stroke-miterlimit="10"/>
<path d="M131.097 86.7068L127.44 90.419C127.44 90.419 127.387 90.419 127.36 90.419L123.704 86.7068C123.704 86.7068 123.704 86.6538 123.704 86.6272L127.36 82.915C127.36 82.915 127.413 82.915 127.44 82.915L131.097 86.6272C131.097 86.6272 131.097 86.6803 131.097 86.7068Z" stroke="white" stroke-miterlimit="10"/>
<path d="M110.906 75.6762L100.36 86.4151C100.36 86.4151 100.281 86.6273 100.36 86.7068L110.906 97.4457C110.906 97.4457 111.118 97.5253 111.171 97.4457L119.014 89.4645C119.014 89.4645 119.226 89.3849 119.279 89.4645L127.122 97.4457C127.122 97.4457 127.334 97.5253 127.387 97.4457L137.933 86.7068C137.933 86.7068 138.012 86.4947 137.933 86.4151L127.387 75.6762C127.387 75.6762 127.175 75.5967 127.122 75.6762L119.279 83.6575C119.279 83.6575 119.067 83.737 119.014 83.6575L111.171 75.6762C111.171 75.6762 110.959 75.5967 110.906 75.6762Z" stroke="white" stroke-miterlimit="10"/>
<path d="M156.163 135.682L152.506 139.394C152.506 139.394 152.453 139.394 152.427 139.394L148.77 135.682C148.77 135.682 148.77 135.628 148.77 135.602L152.427 131.89C152.427 131.89 152.48 131.89 152.506 131.89L156.163 135.602C156.163 135.602 156.163 135.655 156.163 135.682Z" stroke="white" stroke-miterlimit="10"/>
<path d="M148.081 150.053L144.424 153.765C144.424 153.765 144.372 153.765 144.345 153.765L140.688 150.053C140.688 150.053 140.688 150 140.688 149.974L144.345 146.261C144.345 146.261 144.398 146.261 144.424 146.261L148.081 149.974C148.081 149.974 148.081 150.027 148.081 150.053Z" stroke="white" stroke-miterlimit="10"/>
<path d="M164.43 150.053L160.773 153.765C160.773 153.765 160.72 153.765 160.694 153.765L157.037 150.053C157.037 150.053 157.037 150 157.037 149.974L160.694 146.261C160.694 146.261 160.747 146.261 160.773 146.261L164.43 149.974C164.43 149.974 164.43 150.027 164.43 150.053Z" stroke="white" stroke-miterlimit="10"/>
<path d="M144.239 139.049L133.693 149.788C133.693 149.788 133.614 150 133.693 150.08L144.239 160.819C144.239 160.819 144.451 160.898 144.504 160.819L152.347 152.837C152.347 152.837 152.559 152.758 152.612 152.837L160.455 160.819C160.455 160.819 160.667 160.898 160.72 160.819L171.266 150.08C171.266 150.08 171.345 149.867 171.266 149.788L160.72 139.049C160.72 139.049 160.508 138.969 160.455 139.049L152.612 147.03C152.612 147.03 152.4 147.11 152.347 147.03L144.504 139.049C144.504 139.049 144.292 138.969 144.239 139.049Z" stroke="white" stroke-miterlimit="10"/>
<path d="M156.11 122.079L152.453 125.791C152.453 125.791 152.4 125.791 152.374 125.791L148.717 122.079C148.717 122.079 148.717 122.026 148.717 121.999L152.374 118.287C152.374 118.287 152.427 118.287 152.453 118.287L156.11 121.999C156.11 121.999 156.11 122.052 156.11 122.079Z" stroke="white" stroke-miterlimit="10"/>
<path d="M156.11 93.3092L152.453 97.0214C152.453 97.0214 152.4 97.0214 152.374 97.0214L148.717 93.3092C148.717 93.3092 148.717 93.2562 148.717 93.2297L152.374 89.5175C152.374 89.5175 152.427 89.5175 152.453 89.5175L156.11 93.2297C156.11 93.2297 156.11 93.2827 156.11 93.3092Z" stroke="white" stroke-miterlimit="10"/>
<path d="M148.028 107.707L144.371 111.42C144.371 111.42 144.319 111.42 144.292 111.42L140.635 107.707C140.635 107.707 140.635 107.654 140.635 107.628L144.292 103.916C144.292 103.916 144.345 103.916 144.371 103.916L148.028 107.628C148.028 107.628 148.028 107.681 148.028 107.707Z" stroke="white" stroke-miterlimit="10"/>
<path d="M164.377 107.707L160.72 111.42C160.72 111.42 160.667 111.42 160.641 111.42L156.984 107.707C156.984 107.707 156.984 107.654 156.984 107.628L160.641 103.916C160.641 103.916 160.694 103.916 160.72 103.916L164.377 107.628C164.377 107.628 164.377 107.681 164.377 107.707Z" stroke="white" stroke-miterlimit="10"/>
<path d="M144.186 96.6767L133.64 107.416C133.64 107.416 133.561 107.628 133.64 107.707L144.186 118.446C144.186 118.446 144.398 118.526 144.451 118.446L152.294 110.465C152.294 110.465 152.506 110.385 152.559 110.465L160.402 118.446C160.402 118.446 160.614 118.526 160.667 118.446L171.213 107.707C171.213 107.707 171.292 107.495 171.213 107.416L160.667 96.6767C160.667 96.6767 160.455 96.5972 160.402 96.6767L152.559 104.658C152.559 104.658 152.347 104.738 152.294 104.658L144.451 96.6767C144.451 96.6767 144.239 96.5972 144.186 96.6767Z" stroke="white" stroke-miterlimit="10"/>
<path d="M189.946 142.973L186.29 146.685C186.29 146.685 186.237 146.685 186.21 146.685L182.554 142.973C182.554 142.973 182.554 142.92 182.554 142.894L186.21 139.182C186.21 139.182 186.263 139.182 186.29 139.182L189.946 142.894C189.946 142.894 189.946 142.947 189.946 142.973Z" stroke="white" stroke-miterlimit="10"/>
<path d="M189.946 114.204L186.29 117.916C186.29 117.916 186.237 117.916 186.21 117.916L182.554 114.204C182.554 114.204 182.554 114.151 182.554 114.124L186.21 110.412C186.21 110.412 186.263 110.412 186.29 110.412L189.946 114.124C189.946 114.124 189.946 114.177 189.946 114.204Z" stroke="white" stroke-miterlimit="10"/>
<path d="M181.865 128.602L178.208 132.314C178.208 132.314 178.155 132.314 178.129 132.314L174.472 128.602C174.472 128.602 174.472 128.549 174.472 128.522L178.129 124.81C178.129 124.81 178.182 124.81 178.208 124.81L181.865 128.522C181.865 128.522 181.865 128.575 181.865 128.602Z" stroke="white" stroke-miterlimit="10"/>
<path d="M198.24 128.602L194.583 132.314C194.583 132.314 194.53 132.314 194.504 132.314L190.847 128.602C190.847 128.602 190.847 128.549 190.847 128.522L194.504 124.81C194.504 124.81 194.557 124.81 194.583 124.81L198.24 128.522C198.24 128.522 198.24 128.575 198.24 128.602Z" stroke="white" stroke-miterlimit="10"/>
<path d="M178.023 117.571L167.477 128.31C167.477 128.31 167.397 128.522 167.477 128.602L178.023 139.341C178.023 139.341 178.235 139.42 178.288 139.341L186.131 131.359C186.131 131.359 186.343 131.28 186.396 131.359L194.239 139.341C194.239 139.341 194.451 139.42 194.504 139.341L205.05 128.602C205.05 128.602 205.129 128.39 205.05 128.31L194.504 117.571C194.504 117.571 194.292 117.492 194.239 117.571L186.396 125.552C186.396 125.552 186.184 125.632 186.131 125.552L178.288 117.571C178.288 117.571 178.076 117.492 178.023 117.571Z" stroke="white" stroke-miterlimit="10"/>
<path d="M189.92 100.601L186.263 104.313C186.263 104.313 186.21 104.313 186.184 104.313L182.527 100.601C182.527 100.601 182.527 100.548 182.527 100.522L186.184 96.8093C186.184 96.8093 186.237 96.8093 186.263 96.8093L189.92 100.522C189.92 100.522 189.92 100.575 189.92 100.601Z" stroke="white" stroke-miterlimit="10"/>
<path d="M189.92 71.8579L186.263 75.5701C186.263 75.5701 186.21 75.5701 186.184 75.5701L182.527 71.8579C182.527 71.8579 182.527 71.8049 182.527 71.7784L186.184 68.0662C186.184 68.0662 186.237 68.0662 186.263 68.0662L189.92 71.7784C189.92 71.7784 189.92 71.8314 189.92 71.8579Z" stroke="white" stroke-miterlimit="10"/>
<path d="M181.838 86.2295L178.182 89.9417C178.182 89.9417 178.129 89.9417 178.102 89.9417L174.446 86.2295C174.446 86.2295 174.446 86.1765 174.446 86.15L178.102 82.4377C178.102 82.4377 178.155 82.4377 178.182 82.4377L181.838 86.15C181.838 86.15 181.838 86.203 181.838 86.2295Z" stroke="white" stroke-miterlimit="10"/>
<path d="M198.187 86.2295L194.53 89.9417C194.53 89.9417 194.477 89.9417 194.451 89.9417L190.794 86.2295C190.794 86.2295 190.794 86.1765 190.794 86.15L194.451 82.4377C194.451 82.4377 194.504 82.4377 194.53 82.4377L198.187 86.15C198.187 86.15 198.187 86.203 198.187 86.2295Z" stroke="white" stroke-miterlimit="10"/>
<path d="M177.996 75.1989L167.45 85.9378C167.45 85.9378 167.371 86.15 167.45 86.2295L177.996 96.9684C177.996 96.9684 178.208 97.048 178.261 96.9684L186.104 88.9872C186.104 88.9872 186.316 88.9076 186.369 88.9872L194.212 96.9684C194.212 96.9684 194.424 97.048 194.477 96.9684L205.023 86.2295C205.023 86.2295 205.102 86.0174 205.023 85.9378L194.477 75.1989C194.477 75.1989 194.265 75.1194 194.212 75.1989L186.369 83.1802C186.369 83.1802 186.157 83.2597 186.104 83.1802L178.261 75.1989C178.261 75.1989 178.049 75.1194 177.996 75.1989Z" stroke="white" stroke-miterlimit="10"/>
<path d="M224.127 136.106L220.471 139.818C220.471 139.818 220.418 139.818 220.391 139.818L216.735 136.106C216.735 136.106 216.735 136.053 216.735 136.026L220.391 132.314C220.391 132.314 220.444 132.314 220.471 132.314L224.127 136.026C224.127 136.026 224.127 136.079 224.127 136.106Z" stroke="white" stroke-miterlimit="10"/>
<path d="M216.046 150.504L212.389 154.216C212.389 154.216 212.336 154.216 212.31 154.216L208.653 150.504C208.653 150.504 208.653 150.451 208.653 150.424L212.31 146.712C212.31 146.712 212.363 146.712 212.389 146.712L216.046 150.424C216.046 150.424 216.046 150.477 216.046 150.504Z" stroke="white" stroke-miterlimit="10"/>
<path d="M232.421 150.504L228.764 154.216C228.764 154.216 228.711 154.216 228.685 154.216L225.028 150.504C225.028 150.504 225.028 150.451 225.028 150.424L228.685 146.712C228.685 146.712 228.738 146.712 228.764 146.712L232.421 150.424C232.421 150.424 232.421 150.477 232.421 150.504Z" stroke="white" stroke-miterlimit="10"/>
<path d="M212.204 139.473L201.658 150.212C201.658 150.212 201.578 150.424 201.658 150.504L212.204 161.243C212.204 161.243 212.416 161.322 212.469 161.243L220.312 153.261C220.312 153.261 220.524 153.182 220.577 153.261L228.42 161.243C228.42 161.243 228.632 161.322 228.685 161.243L239.231 150.504C239.231 150.504 239.31 150.292 239.231 150.212L228.685 139.473C228.685 139.473 228.473 139.394 228.42 139.473L220.577 147.454C220.577 147.454 220.365 147.534 220.312 147.454L212.469 139.473C212.469 139.473 212.257 139.394 212.204 139.473Z" stroke="white" stroke-miterlimit="10"/>
<path d="M224.101 122.503L220.444 126.215C220.444 126.215 220.391 126.215 220.365 126.215L216.708 122.503C216.708 122.503 216.708 122.45 216.708 122.424L220.365 118.711C220.365 118.711 220.418 118.711 220.444 118.711L224.101 122.424C224.101 122.424 224.101 122.477 224.101 122.503Z" stroke="white" stroke-miterlimit="10"/>
<path d="M224.101 93.76L220.444 97.4722C220.444 97.4722 220.391 97.4722 220.365 97.4722L216.708 93.76C216.708 93.76 216.708 93.707 216.708 93.6805L220.365 89.9683C220.365 89.9683 220.418 89.9683 220.444 89.9683L224.101 93.6805C224.101 93.6805 224.101 93.7335 224.101 93.76Z" stroke="white" stroke-miterlimit="10"/>
<path d="M216.019 108.132L212.363 111.844C212.363 111.844 212.31 111.844 212.283 111.844L208.627 108.132C208.627 108.132 208.627 108.079 208.627 108.052L212.283 104.34C212.283 104.34 212.336 104.34 212.363 104.34L216.019 108.052C216.019 108.052 216.019 108.105 216.019 108.132Z" stroke="white" stroke-miterlimit="10"/>
<path d="M232.368 108.132L228.711 111.844C228.711 111.844 228.658 111.844 228.632 111.844L224.975 108.132C224.975 108.132 224.975 108.079 224.975 108.052L228.632 104.34C228.632 104.34 228.685 104.34 228.711 104.34L232.368 108.052C232.368 108.052 232.368 108.105 232.368 108.132Z" stroke="white" stroke-miterlimit="10"/>
<path d="M212.177 97.101L201.631 107.84C201.631 107.84 201.552 108.052 201.631 108.132L212.177 118.871C212.177 118.871 212.389 118.95 212.442 118.871L220.285 110.889C220.285 110.889 220.497 110.81 220.55 110.889L228.393 118.871C228.393 118.871 228.605 118.95 228.658 118.871L239.204 108.132C239.204 108.132 239.284 107.919 239.204 107.84L228.658 97.101C228.658 97.101 228.446 97.0215 228.393 97.101L220.55 105.082C220.55 105.082 220.338 105.162 220.285 105.082L212.442 97.101C212.442 97.101 212.23 97.0215 212.177 97.101Z" stroke="white" stroke-miterlimit="10"/>
<path d="M224.074 78.7786L220.418 82.4908C220.418 82.4908 220.365 82.4908 220.338 82.4908L216.682 78.7786C216.682 78.7786 216.682 78.7255 216.682 78.699L220.338 74.9868C220.338 74.9868 220.391 74.9868 220.418 74.9868L224.074 78.699C224.074 78.699 224.074 78.7521 224.074 78.7786Z" stroke="white" stroke-miterlimit="10"/>
<path d="M224.074 50.0089L220.418 53.7211C220.418 53.7211 220.365 53.7211 220.338 53.7211L216.682 50.0089C216.682 50.0089 216.682 49.9559 216.682 49.9294L220.338 46.2172C220.338 46.2172 220.391 46.2172 220.418 46.2172L224.074 49.9294C224.074 49.9294 224.074 49.9824 224.074 50.0089Z" stroke="white" stroke-miterlimit="10"/>
<path d="M215.993 64.3805L212.336 68.0927C212.336 68.0927 212.283 68.0927 212.257 68.0927L208.6 64.3805C208.6 64.3805 208.6 64.3275 208.6 64.301L212.257 60.5887C212.257 60.5887 212.31 60.5887 212.336 60.5887L215.993 64.301C215.993 64.301 215.993 64.354 215.993 64.3805Z" stroke="white" stroke-miterlimit="10"/>
<path d="M232.341 64.3805L228.685 68.0927C228.685 68.0927 228.632 68.0927 228.605 68.0927L224.949 64.3805C224.949 64.3805 224.949 64.3275 224.949 64.301L228.605 60.5887C228.605 60.5887 228.658 60.5887 228.685 60.5887L232.341 64.301C232.341 64.301 232.341 64.354 232.341 64.3805Z" stroke="white" stroke-miterlimit="10"/>
<path d="M212.151 53.3764L201.605 64.1153C201.605 64.1153 201.525 64.3275 201.605 64.407L212.151 75.1459C212.151 75.1459 212.363 75.2255 212.416 75.1459L220.259 67.1646C220.259 67.1646 220.471 67.0851 220.524 67.1646L228.367 75.1459C228.367 75.1459 228.579 75.2255 228.632 75.1459L239.178 64.407C239.178 64.407 239.257 64.1949 239.178 64.1153L228.632 53.3764C228.632 53.3764 228.42 53.2969 228.367 53.3764L220.524 61.3577C220.524 61.3577 220.312 61.4372 220.259 61.3577L212.416 53.3764C212.416 53.3764 212.204 53.2969 212.151 53.3764Z" stroke="white" stroke-miterlimit="10"/>
<path d="M224.021 36.4063L220.365 40.1185C220.365 40.1185 220.312 40.1185 220.285 40.1185L216.629 36.4063C216.629 36.4063 216.629 36.3532 216.629 36.3267L220.285 32.6145C220.285 32.6145 220.338 32.6145 220.365 32.6145L224.021 36.3267C224.021 36.3267 224.021 36.3797 224.021 36.4063Z" stroke="white" stroke-miterlimit="10"/>
<path d="M224.021 7.63661L220.365 11.3488C220.365 11.3488 220.312 11.3488 220.285 11.3488L216.629 7.63661C216.629 7.63661 216.629 7.58358 216.629 7.55706L220.285 3.84485C220.285 3.84485 220.338 3.84485 220.365 3.84485L224.021 7.55706C224.021 7.55706 224.021 7.6101 224.021 7.63661Z" stroke="white" stroke-miterlimit="10"/>
<path d="M215.94 22.0347L212.283 25.7469C212.283 25.7469 212.23 25.7469 212.204 25.7469L208.547 22.0347C208.547 22.0347 208.547 21.9816 208.547 21.9551L212.204 18.2429C212.204 18.2429 212.257 18.2429 212.283 18.2429L215.94 21.9551C215.94 21.9551 215.94 22.0082 215.94 22.0347Z" stroke="white" stroke-miterlimit="10"/>
<path d="M232.288 22.0347L228.632 25.7469C228.632 25.7469 228.579 25.7469 228.552 25.7469L224.896 22.0347C224.896 22.0347 224.896 21.9816 224.896 21.9551L228.552 18.2429C228.552 18.2429 228.605 18.2429 228.632 18.2429L232.288 21.9551C232.288 21.9551 232.288 22.0082 232.288 22.0347Z" stroke="white" stroke-miterlimit="10"/>
<path d="M212.098 11.0041L201.552 21.743C201.552 21.743 201.472 21.9551 201.552 22.0347L212.098 32.7736C212.098 32.7736 212.31 32.8531 212.363 32.7736L220.206 24.7923C220.206 24.7923 220.418 24.7128 220.471 24.7923L228.314 32.7736C228.314 32.7736 228.526 32.8531 228.579 32.7736L239.125 22.0347C239.125 22.0347 239.204 21.8226 239.125 21.743L228.579 11.0041C228.579 11.0041 228.367 10.9246 228.314 11.0041L220.471 18.9854C220.471 18.9854 220.259 19.0649 220.206 18.9854L212.363 11.0041C212.363 11.0041 212.151 10.9246 212.098 11.0041Z" stroke="white" stroke-miterlimit="10"/>
<path d="M189.973 55.3385L186.316 59.0507C186.316 59.0507 186.263 59.0507 186.237 59.0507L182.58 55.3385C182.58 55.3385 182.58 55.2855 182.58 55.259L186.237 51.5468C186.237 51.5468 186.29 51.5468 186.316 51.5468L189.973 55.259C189.973 55.259 189.973 55.312 189.973 55.3385Z" stroke="white" stroke-miterlimit="10"/>
<path d="M189.973 26.5953L186.316 30.3076C186.316 30.3076 186.263 30.3076 186.237 30.3076L182.58 26.5953C182.58 26.5953 182.58 26.5423 182.58 26.5158L186.237 22.8036C186.237 22.8036 186.29 22.8036 186.316 22.8036L189.973 26.5158C189.973 26.5158 189.973 26.5688 189.973 26.5953Z" stroke="white" stroke-miterlimit="10"/>
<path d="M181.891 40.9669L178.235 44.6791C178.235 44.6791 178.182 44.6791 178.155 44.6791L174.499 40.9669C174.499 40.9669 174.499 40.9139 174.499 40.8874L178.155 37.1752C178.155 37.1752 178.208 37.1752 178.235 37.1752L181.891 40.8874C181.891 40.8874 181.891 40.9404 181.891 40.9669Z" stroke="white" stroke-miterlimit="10"/>
<path d="M198.24 40.9669L194.583 44.6791C194.583 44.6791 194.53 44.6791 194.504 44.6791L190.847 40.9669C190.847 40.9669 190.847 40.9139 190.847 40.8874L194.504 37.1752C194.504 37.1752 194.557 37.1752 194.583 37.1752L198.24 40.8874C198.24 40.8874 198.24 40.9404 198.24 40.9669Z" stroke="white" stroke-miterlimit="10"/>
<path d="M178.049 29.9364L167.503 40.6753C167.503 40.6753 167.424 40.8874 167.503 40.9669L178.049 51.7058C178.049 51.7058 178.261 51.7854 178.314 51.7058L186.157 43.7246C186.157 43.7246 186.369 43.645 186.422 43.7246L194.265 51.7058C194.265 51.7058 194.477 51.7854 194.53 51.7058L205.076 40.9669C205.076 40.9669 205.155 40.7548 205.076 40.6753L194.53 29.9364C194.53 29.9364 194.318 29.8568 194.265 29.9364L186.422 37.9176C186.422 37.9176 186.21 37.9972 186.157 37.9176L178.314 29.9364C178.314 29.9364 178.102 29.8568 178.049 29.9364Z" stroke="white" stroke-miterlimit="10"/>
<path d="M189.946 12.9663L186.29 16.6785C186.29 16.6785 186.237 16.6785 186.21 16.6785L182.554 12.9663C182.554 12.9663 182.554 12.9133 182.554 12.8868L186.21 9.17456C186.21 9.17456 186.263 9.17456 186.29 9.17456L189.946 12.8868C189.946 12.8868 189.946 12.9398 189.946 12.9663Z" stroke="white" stroke-miterlimit="10"/>
<path d="M181.838 -1.40526L178.182 2.30696C178.182 2.30696 178.129 2.30696 178.102 2.30696L174.446 -1.40526C174.446 -1.40526 174.446 -1.45829 174.446 -1.48481L178.102 -5.19702C178.102 -5.19702 178.155 -5.19702 178.182 -5.19702L181.838 -1.48481C181.838 -1.48481 181.838 -1.43177 181.838 -1.40526Z" stroke="white" stroke-miterlimit="10"/>
<path d="M198.213 -1.40526L194.557 2.30696C194.557 2.30696 194.504 2.30696 194.477 2.30696L190.821 -1.40526C190.821 -1.40526 190.821 -1.45829 190.821 -1.48481L194.477 -5.19702C194.477 -5.19702 194.53 -5.19702 194.557 -5.19702L198.213 -1.48481C198.213 -1.48481 198.213 -1.43177 198.213 -1.40526Z" stroke="white" stroke-miterlimit="10"/>
<path d="M178.023 -12.4358L167.477 -1.69693C167.477 -1.69693 167.397 -1.4848 167.477 -1.40525L178.023 9.33365C178.023 9.33365 178.235 9.4132 178.288 9.33365L186.131 1.35239C186.131 1.35239 186.343 1.27284 186.396 1.35239L194.239 9.33365C194.239 9.33365 194.451 9.4132 194.504 9.33365L205.05 -1.40525C205.05 -1.40525 205.129 -1.61738 205.05 -1.69693L194.504 -12.4358C194.504 -12.4358 194.292 -12.5154 194.239 -12.4358L186.396 -4.45457C186.396 -4.45457 186.184 -4.37503 186.131 -4.45457L178.288 -12.4358C178.288 -12.4358 178.076 -12.5154 178.023 -12.4358Z" stroke="white" stroke-miterlimit="10"/>
<path d="M156.083 77.1876L152.427 80.8999C152.427 80.8999 152.374 80.8999 152.347 80.8999L148.691 77.1876C148.691 77.1876 148.691 77.1346 148.691 77.1081L152.347 73.3959C152.347 73.3959 152.4 73.3959 152.427 73.3959L156.083 77.1081C156.083 77.1081 156.083 77.1611 156.083 77.1876Z" stroke="white" stroke-miterlimit="10"/>
<path d="M156.083 48.4445L152.427 52.1567C152.427 52.1567 152.374 52.1567 152.347 52.1567L148.691 48.4445C148.691 48.4445 148.691 48.3914 148.691 48.3649L152.347 44.6527C152.347 44.6527 152.4 44.6527 152.427 44.6527L156.083 48.3649C156.083 48.3649 156.083 48.418 156.083 48.4445Z" stroke="white" stroke-miterlimit="10"/>
<path d="M148.002 62.8161L144.345 66.5283C144.345 66.5283 144.292 66.5283 144.266 66.5283L140.609 62.8161C140.609 62.8161 140.609 62.763 140.609 62.7365L144.266 59.0243C144.266 59.0243 144.319 59.0243 144.345 59.0243L148.002 62.7365C148.002 62.7365 148.002 62.7895 148.002 62.8161Z" stroke="white" stroke-miterlimit="10"/>
<path d="M164.35 62.8161L160.694 66.5283C160.694 66.5283 160.641 66.5283 160.614 66.5283L156.958 62.8161C156.958 62.8161 156.958 62.763 156.958 62.7365L160.614 59.0243C160.614 59.0243 160.667 59.0243 160.694 59.0243L164.35 62.7365C164.35 62.7365 164.35 62.7895 164.35 62.8161Z" stroke="white" stroke-miterlimit="10"/>
<path d="M144.16 51.7855L133.614 62.5244C133.614 62.5244 133.534 62.7365 133.614 62.8161L144.16 73.555C144.16 73.555 144.372 73.6345 144.425 73.555L152.268 65.5737C152.268 65.5737 152.48 65.4942 152.533 65.5737L160.376 73.555C160.376 73.555 160.588 73.6345 160.641 73.555L171.186 62.8161C171.186 62.8161 171.266 62.6039 171.186 62.5244L160.641 51.7855C160.641 51.7855 160.429 51.7059 160.376 51.7855L152.533 59.7667C152.533 59.7667 152.321 59.8463 152.268 59.7667L144.425 51.7855C144.425 51.7855 144.213 51.7059 144.16 51.7855Z" stroke="white" stroke-miterlimit="10"/>
<path d="M156.057 34.8153L152.4 38.5275C152.4 38.5275 152.347 38.5275 152.321 38.5275L148.664 34.8153C148.664 34.8153 148.664 34.7623 148.664 34.7358L152.321 31.0236C152.321 31.0236 152.374 31.0236 152.4 31.0236L156.057 34.7358C156.057 34.7358 156.057 34.7888 156.057 34.8153Z" stroke="white" stroke-miterlimit="10"/>
<path d="M156.057 6.07216L152.4 9.78437C152.4 9.78437 152.347 9.78437 152.321 9.78437L148.664 6.07216C148.664 6.07216 148.664 6.01913 148.664 5.99261L152.321 2.2804C152.321 2.2804 152.374 2.2804 152.4 2.2804L156.057 5.99261C156.057 5.99261 156.057 6.04564 156.057 6.07216Z" stroke="white" stroke-miterlimit="10"/>
<path d="M147.949 20.4437L144.292 24.156C144.292 24.156 144.239 24.156 144.213 24.156L140.556 20.4437C140.556 20.4437 140.556 20.3907 140.556 20.3642L144.213 16.652C144.213 16.652 144.266 16.652 144.292 16.652L147.949 20.3642C147.949 20.3642 147.949 20.4172 147.949 20.4437Z" stroke="white" stroke-miterlimit="10"/>
<path d="M164.324 20.4437L160.667 24.156C160.667 24.156 160.614 24.156 160.588 24.156L156.931 20.4437C156.931 20.4437 156.931 20.3907 156.931 20.3642L160.588 16.652C160.588 16.652 160.641 16.652 160.667 16.652L164.324 20.3642C164.324 20.3642 164.324 20.4172 164.324 20.4437Z" stroke="white" stroke-miterlimit="10"/>
<path d="M144.133 9.41316L133.587 20.1521C133.587 20.1521 133.508 20.3642 133.587 20.4437L144.133 31.1827C144.133 31.1827 144.345 31.2622 144.398 31.1827L152.241 23.2014C152.241 23.2014 152.453 23.1218 152.506 23.2014L160.349 31.1827C160.349 31.1827 160.561 31.2622 160.614 31.1827L171.16 20.4437C171.16 20.4437 171.239 20.2316 171.16 20.1521L160.614 9.41316C160.614 9.41316 160.402 9.33361 160.349 9.41316L152.506 17.3944C152.506 17.3944 152.294 17.474 152.241 17.3944L144.398 9.41316C144.398 9.41316 144.186 9.33361 144.133 9.41316Z" stroke="white" stroke-miterlimit="10"/>
<path d="M122.803 54.9939L119.146 58.7061C119.146 58.7061 119.093 58.7061 119.067 58.7061L115.41 54.9939C115.41 54.9939 115.41 54.9409 115.41 54.9144L119.067 51.2021C119.067 51.2021 119.12 51.2021 119.146 51.2021L122.803 54.9144C122.803 54.9144 122.803 54.9674 122.803 54.9939Z" stroke="white" stroke-miterlimit="10"/>
<path d="M122.803 26.2507L119.146 29.963C119.146 29.963 119.093 29.963 119.067 29.963L115.41 26.2507C115.41 26.2507 115.41 26.1977 115.41 26.1712L119.067 22.459C119.067 22.459 119.12 22.459 119.146 22.459L122.803 26.1712C122.803 26.1712 122.803 26.2242 122.803 26.2507Z" stroke="white" stroke-miterlimit="10"/>
<path d="M114.721 40.6223L111.065 44.3345C111.065 44.3345 111.012 44.3345 110.985 44.3345L107.329 40.6223C107.329 40.6223 107.329 40.5693 107.329 40.5428L110.985 36.8306C110.985 36.8306 111.038 36.8306 111.065 36.8306L114.721 40.5428C114.721 40.5428 114.721 40.5958 114.721 40.6223Z" stroke="white" stroke-miterlimit="10"/>
<path d="M131.07 40.6223L127.413 44.3345C127.413 44.3345 127.36 44.3345 127.334 44.3345L123.677 40.6223C123.677 40.6223 123.677 40.5693 123.677 40.5428L127.334 36.8306C127.334 36.8306 127.387 36.8306 127.413 36.8306L131.07 40.5428C131.07 40.5428 131.07 40.5958 131.07 40.6223Z" stroke="white" stroke-miterlimit="10"/>
<path d="M110.879 29.6182L100.334 40.3571C100.334 40.3571 100.254 40.5693 100.334 40.6488L110.879 51.3877C110.879 51.3877 111.091 51.4673 111.144 51.3877L118.987 43.4065C118.987 43.4065 119.199 43.3269 119.252 43.4065L127.096 51.3877C127.096 51.3877 127.307 51.4673 127.36 51.3877L137.906 40.6488C137.906 40.6488 137.986 40.4367 137.906 40.3571L127.36 29.6182C127.36 29.6182 127.149 29.5387 127.096 29.6182L119.252 37.5995C119.252 37.5995 119.04 37.6791 118.987 37.5995L111.144 29.6182C111.144 29.6182 110.932 29.5387 110.879 29.6182Z" stroke="white" stroke-miterlimit="10"/>
<path d="M122.75 12.6216L119.093 16.3338C119.093 16.3338 119.04 16.3338 119.014 16.3338L115.357 12.6216C115.357 12.6216 115.357 12.5686 115.357 12.542L119.014 8.82983C119.014 8.82983 119.067 8.82983 119.093 8.82983L122.75 12.542C122.75 12.542 122.75 12.5951 122.75 12.6216Z" stroke="white" stroke-miterlimit="10"/>
<path d="M114.668 -1.74999L111.012 1.96223C111.012 1.96223 110.959 1.96223 110.932 1.96223L107.276 -1.74999C107.276 -1.74999 107.276 -1.80302 107.276 -1.82953L110.932 -5.54175C110.932 -5.54175 110.985 -5.54175 111.012 -5.54175L114.668 -1.82953C114.668 -1.82953 114.668 -1.7765 114.668 -1.74999Z" stroke="white" stroke-miterlimit="10"/>
<path d="M131.044 -1.74999L127.387 1.96223C127.387 1.96223 127.334 1.96223 127.308 1.96223L123.651 -1.74999C123.651 -1.74999 123.651 -1.80302 123.651 -1.82953L127.308 -5.54175C127.308 -5.54175 127.361 -5.54175 127.387 -5.54175L131.044 -1.82953C131.044 -1.82953 131.044 -1.7765 131.044 -1.74999Z" stroke="white" stroke-miterlimit="10"/>
<path d="M110.826 -12.7541L100.281 -2.01517C100.281 -2.01517 100.201 -1.80304 100.281 -1.72349L110.826 9.01542C110.826 9.01542 111.038 9.09496 111.091 9.01542L118.934 1.03415C118.934 1.03415 119.146 0.954605 119.199 1.03415L127.043 9.01542C127.043 9.01542 127.255 9.09496 127.307 9.01542L137.853 -1.72349C137.853 -1.72349 137.933 -1.93562 137.853 -2.01517L127.307 -12.7541C127.307 -12.7541 127.096 -12.8336 127.043 -12.7541L119.199 -4.77281C119.199 -4.77281 118.987 -4.69326 118.934 -4.77281L111.091 -12.7541C111.091 -12.7541 110.879 -12.8336 110.826 -12.7541Z" stroke="white" stroke-miterlimit="10"/>
<path d="M89.2314 77.0549L85.5748 80.7672C85.5748 80.7672 85.5218 80.7672 85.4953 80.7672L81.8387 77.0549C81.8387 77.0549 81.8387 77.0019 81.8387 76.9754L85.4953 73.2632C85.4953 73.2632 85.5483 73.2632 85.5748 73.2632L89.2314 76.9754C89.2314 76.9754 89.2314 77.0284 89.2314 77.0549Z" stroke="white" stroke-miterlimit="10"/>
<path d="M89.2314 48.2853L85.5748 51.9975C85.5748 51.9975 85.5218 51.9975 85.4953 51.9975L81.8387 48.2853C81.8387 48.2853 81.8387 48.2323 81.8387 48.2057L85.4953 44.4935C85.4953 44.4935 85.5483 44.4935 85.5748 44.4935L89.2314 48.2057C89.2314 48.2057 89.2314 48.2588 89.2314 48.2853Z" stroke="white" stroke-miterlimit="10"/>
<path d="M81.1498 62.6569L77.4933 66.3691C77.4933 66.3691 77.4403 66.3691 77.4138 66.3691L73.7572 62.6569C73.7572 62.6569 73.7572 62.6038 73.7572 62.5773L77.4138 58.8651C77.4138 58.8651 77.4668 58.8651 77.4933 58.8651L81.1498 62.5773C81.1498 62.5773 81.1498 62.6304 81.1498 62.6569Z" stroke="white" stroke-miterlimit="10"/>
<path d="M97.4985 62.6569L93.8419 66.3691C93.8419 66.3691 93.7889 66.3691 93.7624 66.3691L90.1058 62.6569C90.1058 62.6569 90.1058 62.6038 90.1058 62.5773L93.7624 58.8651C93.7624 58.8651 93.8154 58.8651 93.8419 58.8651L97.4985 62.5773C97.4985 62.5773 97.4985 62.6304 97.4985 62.6569Z" stroke="white" stroke-miterlimit="10"/>
<path d="M77.3078 51.6528L66.762 62.3917C66.762 62.3917 66.6825 62.6038 66.762 62.6834L77.3078 73.4223C77.3078 73.4223 77.5198 73.5018 77.5728 73.4223L85.4159 65.441C85.4159 65.441 85.6278 65.3615 85.6808 65.441L93.5239 73.4223C93.5239 73.4223 93.7359 73.5018 93.7889 73.4223L104.335 62.6834C104.335 62.6834 104.414 62.4712 104.335 62.3917L93.7889 51.6528C93.7889 51.6528 93.5769 51.5732 93.5239 51.6528L85.6808 59.634C85.6808 59.634 85.4689 59.7136 85.4159 59.634L77.5728 51.6528C77.5728 51.6528 77.3608 51.5732 77.3078 51.6528Z" stroke="white" stroke-miterlimit="10"/>
<path d="M89.2049 34.6828L85.5483 38.395C85.5483 38.395 85.4953 38.395 85.4688 38.395L81.8123 34.6828C81.8123 34.6828 81.8123 34.6297 81.8123 34.6032L85.4688 30.891C85.4688 30.891 85.5218 30.891 85.5483 30.891L89.2049 34.6032C89.2049 34.6032 89.2049 34.6562 89.2049 34.6828Z" stroke="white" stroke-miterlimit="10"/>
<path d="M89.2049 5.9131L85.5483 9.62532C85.5483 9.62532 85.4953 9.62532 85.4688 9.62532L81.8123 5.9131C81.8123 5.9131 81.8123 5.86007 81.8123 5.83355L85.4688 2.12134C85.4688 2.12134 85.5218 2.12134 85.5483 2.12134L89.2049 5.83355C89.2049 5.83355 89.2049 5.88658 89.2049 5.9131Z" stroke="white" stroke-miterlimit="10"/>
<path d="M81.0969 20.3112L77.4403 24.0234C77.4403 24.0234 77.3873 24.0234 77.3608 24.0234L73.7042 20.3112C73.7042 20.3112 73.7042 20.2581 73.7042 20.2316L77.3608 16.5194C77.3608 16.5194 77.4138 16.5194 77.4403 16.5194L81.0969 20.2316C81.0969 20.2316 81.0969 20.2847 81.0969 20.3112Z" stroke="white" stroke-miterlimit="10"/>
<path d="M97.4719 20.3112L93.8154 24.0234C93.8154 24.0234 93.7624 24.0234 93.7359 24.0234L90.0793 20.3112C90.0793 20.3112 90.0793 20.2581 90.0793 20.2316L93.7359 16.5194C93.7359 16.5194 93.7889 16.5194 93.8154 16.5194L97.4719 20.2316C97.4719 20.2316 97.4719 20.2847 97.4719 20.3112Z" stroke="white" stroke-miterlimit="10"/>
<path d="M77.2813 9.28059L66.7355 20.0195C66.7355 20.0195 66.656 20.2316 66.7355 20.3112L77.2813 31.0501C77.2813 31.0501 77.4933 31.1296 77.5463 31.0501L85.3894 23.0688C85.3894 23.0688 85.6013 22.9893 85.6543 23.0688L93.4974 31.0501C93.4974 31.0501 93.7094 31.1296 93.7624 31.0501L104.308 20.3112C104.308 20.3112 104.388 20.099 104.308 20.0195L93.7624 9.28059C93.7624 9.28059 93.5504 9.20105 93.4974 9.28059L85.6543 17.2619C85.6543 17.2619 85.4424 17.3414 85.3894 17.2619L77.5463 9.28059C77.5463 9.28059 77.3343 9.20105 77.2813 9.28059Z" stroke="white" stroke-miterlimit="10"/>
<path d="M55.8188 55.5772L52.1622 59.2894C52.1622 59.2894 52.1092 59.2894 52.0827 59.2894L48.4261 55.5772C48.4261 55.5772 48.4261 55.5241 48.4261 55.4976L52.0827 51.7854C52.0827 51.7854 52.1357 51.7854 52.1622 51.7854L55.8188 55.4976C55.8188 55.4976 55.8188 55.5506 55.8188 55.5772Z" stroke="white" stroke-miterlimit="10"/>
<path d="M55.8188 26.8075L52.1622 30.5197C52.1622 30.5197 52.1092 30.5197 52.0827 30.5197L48.4261 26.8075C48.4261 26.8075 48.4261 26.7545 48.4261 26.728L52.0827 23.0157C52.0827 23.0157 52.1357 23.0157 52.1622 23.0157L55.8188 26.728C55.8188 26.728 55.8188 26.781 55.8188 26.8075Z" stroke="white" stroke-miterlimit="10"/>
<path d="M47.7372 41.2056L44.0806 44.9178C44.0806 44.9178 44.0276 44.9178 44.0011 44.9178L40.3445 41.2056C40.3445 41.2056 40.3445 41.1526 40.3445 41.126L44.0011 37.4138C44.0011 37.4138 44.0541 37.4138 44.0806 37.4138L47.7372 41.126C47.7372 41.126 47.7372 41.1791 47.7372 41.2056Z" stroke="white" stroke-miterlimit="10"/>
<path d="M64.0858 41.2056L60.4292 44.9178C60.4292 44.9178 60.3763 44.9178 60.3498 44.9178L56.6932 41.2056C56.6932 41.2056 56.6932 41.1526 56.6932 41.126L60.3498 37.4138C60.3498 37.4138 60.4027 37.4138 60.4292 37.4138L64.0858 41.126C64.0858 41.126 64.0858 41.1791 64.0858 41.2056Z" stroke="white" stroke-miterlimit="10"/>
<path d="M43.8951 30.175L33.3494 40.9139C33.3494 40.9139 33.2699 41.126 33.3494 41.2056L43.8951 51.9445C43.8951 51.9445 44.1071 52.024 44.1601 51.9445L52.0032 43.9632C52.0032 43.9632 52.2152 43.8837 52.2682 43.9632L60.1113 51.9445C60.1113 51.9445 60.3232 52.024 60.3762 51.9445L70.922 41.2056C70.922 41.2056 71.0015 40.9935 70.922 40.9139L60.3762 30.175C60.3762 30.175 60.1643 30.0955 60.1113 30.175L52.2682 38.1563C52.2682 38.1563 52.0562 38.2358 52.0032 38.1563L44.1601 30.175C44.1601 30.175 43.9481 30.0955 43.8951 30.175Z" stroke="white" stroke-miterlimit="10"/>
<path d="M55.7657 13.205L52.1092 16.9172C52.1092 16.9172 52.0562 16.9172 52.0297 16.9172L48.3731 13.205C48.3731 13.205 48.3731 13.1519 48.3731 13.1254L52.0297 9.41321C52.0297 9.41321 52.0827 9.41321 52.1092 9.41321L55.7657 13.1254C55.7657 13.1254 55.7657 13.1785 55.7657 13.205Z" stroke="white" stroke-miterlimit="10"/>
<path d="M47.6842 -1.16661L44.0276 2.5456C44.0276 2.5456 43.9746 2.5456 43.9481 2.5456L40.2916 -1.16661C40.2916 -1.16661 40.2916 -1.21964 40.2916 -1.24616L43.9481 -4.95837C43.9481 -4.95837 44.0011 -4.95837 44.0276 -4.95837L47.6842 -1.24616C47.6842 -1.24616 47.6842 -1.19313 47.6842 -1.16661Z" stroke="white" stroke-miterlimit="10"/>
<path d="M64.0328 -1.16661L60.3763 2.5456C60.3763 2.5456 60.3233 2.5456 60.2968 2.5456L56.6402 -1.16661C56.6402 -1.16661 56.6402 -1.21964 56.6402 -1.24616L60.2968 -4.95837C60.2968 -4.95837 60.3498 -4.95837 60.3763 -4.95837L64.0328 -1.24616C64.0328 -1.24616 64.0328 -1.19313 64.0328 -1.16661Z" stroke="white" stroke-miterlimit="10"/>
<path d="M43.8422 -12.1972L33.2964 -1.45828C33.2964 -1.45828 33.2169 -1.24616 33.2964 -1.16661L43.8422 9.5723C43.8422 9.5723 44.0541 9.65185 44.1071 9.5723L51.9502 1.59104C51.9502 1.59104 52.1622 1.51149 52.2152 1.59104L60.0583 9.5723C60.0583 9.5723 60.2703 9.65185 60.3232 9.5723L70.869 -1.16661C70.869 -1.16661 70.9485 -1.37873 70.869 -1.45828L60.3232 -12.1972C60.3232 -12.1972 60.1113 -12.2767 60.0583 -12.1972L52.2152 -4.21593C52.2152 -4.21593 52.0032 -4.13638 51.9502 -4.21593L44.1071 -12.1972C44.1071 -12.1972 43.8951 -12.2767 43.8422 -12.1972Z" stroke="white" stroke-miterlimit="10"/>
<path d="M22.2471 79.9718L18.5906 83.684C18.5906 83.684 18.5376 83.684 18.5111 83.684L14.8545 79.9718C14.8545 79.9718 14.8545 79.9188 14.8545 79.8923L18.5111 76.1801C18.5111 76.1801 18.5641 76.1801 18.5906 76.1801L22.2471 79.8923C22.2471 79.8923 22.2471 79.9453 22.2471 79.9718Z" stroke="white" stroke-miterlimit="10"/>
<path d="M22.2471 51.2287L18.5906 54.9409C18.5906 54.9409 18.5376 54.9409 18.5111 54.9409L14.8545 51.2287C14.8545 51.2287 14.8545 51.1756 14.8545 51.1491L18.5111 47.4369C18.5111 47.4369 18.5641 47.4369 18.5906 47.4369L22.2471 51.1491C22.2471 51.1491 22.2471 51.2021 22.2471 51.2287Z" stroke="white" stroke-miterlimit="10"/>
<path d="M14.1656 65.6002L10.509 69.3124C10.509 69.3124 10.456 69.3124 10.4295 69.3124L6.77295 65.6002C6.77295 65.6002 6.77295 65.5472 6.77295 65.5207L10.4295 61.8085C10.4295 61.8085 10.4825 61.8085 10.509 61.8085L14.1656 65.5207C14.1656 65.5207 14.1656 65.5737 14.1656 65.6002Z" stroke="white" stroke-miterlimit="10"/>
<path d="M30.5142 65.6002L26.8576 69.3124C26.8576 69.3124 26.8047 69.3124 26.7782 69.3124L23.1216 65.6002C23.1216 65.6002 23.1216 65.5472 23.1216 65.5207L26.7782 61.8085C26.7782 61.8085 26.8312 61.8085 26.8576 61.8085L30.5142 65.5207C30.5142 65.5207 30.5142 65.5737 30.5142 65.6002Z" stroke="white" stroke-miterlimit="10"/>
<path d="M10.3235 54.5697L-0.222239 65.3086C-0.222239 65.3086 -0.30173 65.5207 -0.222239 65.6002L10.3235 76.3391C10.3235 76.3391 10.5355 76.4187 10.5885 76.3391L18.4316 68.3579C18.4316 68.3579 18.6436 68.2783 18.6966 68.3579L26.5397 76.3391C26.5397 76.3391 26.7516 76.4187 26.8046 76.3391L37.3504 65.6002C37.3504 65.6002 37.4299 65.3881 37.3504 65.3086L26.8046 54.5697C26.8046 54.5697 26.5927 54.4901 26.5397 54.5697L18.6966 62.5509C18.6966 62.5509 18.4846 62.6305 18.4316 62.5509L10.5885 54.5697C10.5885 54.5697 10.3765 54.4901 10.3235 54.5697Z" stroke="white" stroke-miterlimit="10"/>
<path d="M22.1941 37.5995L18.5375 41.3117C18.5375 41.3117 18.4845 41.3117 18.458 41.3117L14.8015 37.5995C14.8015 37.5995 14.8015 37.5465 14.8015 37.52L18.458 33.8077C18.458 33.8077 18.511 33.8077 18.5375 33.8077L22.1941 37.52C22.1941 37.52 22.1941 37.573 22.1941 37.5995Z" stroke="white" stroke-miterlimit="10"/>
<path d="M22.1941 8.85634L18.5375 12.5686C18.5375 12.5686 18.4845 12.5686 18.458 12.5686L14.8015 8.85634C14.8015 8.85634 14.8015 8.80331 14.8015 8.77679L18.458 5.06458C18.458 5.06458 18.511 5.06458 18.5375 5.06458L22.1941 8.77679C22.1941 8.77679 22.1941 8.82982 22.1941 8.85634Z" stroke="white" stroke-miterlimit="10"/>
<path d="M14.1126 23.2279L10.456 26.9401C10.456 26.9401 10.403 26.9401 10.3765 26.9401L6.71991 23.2279C6.71991 23.2279 6.71991 23.1749 6.71991 23.1484L10.3765 19.4362C10.3765 19.4362 10.4295 19.4362 10.456 19.4362L14.1126 23.1484C14.1126 23.1484 14.1126 23.2014 14.1126 23.2279Z" stroke="white" stroke-miterlimit="10"/>
<path d="M30.4877 23.2279L26.8311 26.9401C26.8311 26.9401 26.7781 26.9401 26.7516 26.9401L23.095 23.2279C23.095 23.2279 23.095 23.1749 23.095 23.1484L26.7516 19.4362C26.7516 19.4362 26.8046 19.4362 26.8311 19.4362L30.4877 23.1484C30.4877 23.1484 30.4877 23.2014 30.4877 23.2279Z" stroke="white" stroke-miterlimit="10"/>
<path d="M10.2705 12.1973L-0.275279 22.9362C-0.275279 22.9362 -0.354769 23.1484 -0.275279 23.2279L10.2705 33.9668C10.2705 33.9668 10.4825 34.0464 10.5355 33.9668L18.3786 25.9856C18.3786 25.9856 18.5905 25.906 18.6435 25.9856L26.4866 33.9668C26.4866 33.9668 26.6986 34.0464 26.7516 33.9668L37.2974 23.2279C37.2974 23.2279 37.3769 23.0158 37.2974 22.9362L26.7516 12.1973C26.7516 12.1973 26.5396 12.1178 26.4866 12.1973L18.6435 20.1786C18.6435 20.1786 18.4316 20.2582 18.3786 20.1786L10.5355 12.1973C10.5355 12.1973 10.3235 12.1178 10.2705 12.1973Z" stroke="white" stroke-miterlimit="10"/>
<path d="M-23.0626 33.3039L-33.6084 44.0428C-33.6084 44.0428 -33.6879 44.2549 -33.6084 44.3345L-23.0626 55.0734C-23.0626 55.0734 -22.8507 55.1529 -22.7977 55.0734L-14.9546 47.0921C-14.9546 47.0921 -14.7426 47.0126 -14.6896 47.0921L-6.8465 55.0734C-6.8465 55.0734 -6.63453 55.1529 -6.58154 55.0734L3.96425 44.3345C3.96425 44.3345 4.04374 44.1224 3.96425 44.0428L-6.58154 33.3039C-6.58154 33.3039 -6.79351 33.2244 -6.8465 33.3039L-14.6896 41.2852C-14.6896 41.2852 -14.9016 41.3647 -14.9546 41.2852L-22.7977 33.3039C-22.7977 33.3039 -23.0096 33.2244 -23.0626 33.3039Z" stroke="white" stroke-miterlimit="10"/>
<path d="M-23.0891 -9.06838L-33.6614 1.67053C-33.6614 1.67053 -33.7409 1.88266 -33.6614 1.9622L-23.1156 12.7011C-23.1156 12.7011 -22.9036 12.7807 -22.8506 12.7011L-15.0075 4.71985C-15.0075 4.71985 -14.7956 4.6403 -14.7426 4.71985L-6.89949 12.7011C-6.89949 12.7011 -6.68751 12.7807 -6.63452 12.7011L3.99075 1.93569C3.99075 1.93569 4.07024 1.72356 3.99075 1.64401L-6.55503 -9.09489C-6.55503 -9.09489 -6.767 -9.17444 -6.81999 -9.09489L-14.6896 -1.08712C-14.6896 -1.08712 -14.9016 -1.00757 -14.9546 -1.08712L-22.7976 -9.06838C-22.7976 -9.06838 -23.0096 -9.14793 -23.0626 -9.06838H-23.0891Z" stroke="white" stroke-miterlimit="10"/>
</g>
</svg>
