<svg width="41" height="13" viewBox="0 0 41 13" fill="none" xmlns="http://www.w3.org/2000/svg">
<path d="M14.9961 12.496L17.0295 0.563293H20.282L18.2471 12.496H14.9961Z" fill="#0E4595"/>
<path d="M29.9978 0.82075C29.3535 0.579004 28.3437 0.31958 27.0828 0.31958C23.8689 0.31958 21.6052 1.93799 21.5859 4.2575C21.5678 5.9721 23.202 6.9286 24.4357 7.49938C25.7018 8.08437 26.1274 8.45735 26.1213 8.97955C26.1132 9.77946 25.1103 10.1448 24.1754 10.1448C22.8737 10.1448 22.1821 9.96391 21.1139 9.51851L20.6947 9.32882L20.2383 12C20.998 12.3332 22.4027 12.6217 23.8613 12.6367C27.2803 12.6367 29.4998 11.0368 29.525 8.55981C29.5371 7.20235 28.6706 6.16941 26.7942 5.31775C25.6573 4.76574 24.9611 4.39739 24.9685 3.83844C24.9685 3.34245 25.5578 2.81208 26.8312 2.81208C27.8947 2.79556 28.6652 3.0275 29.2655 3.26924L29.5569 3.40694L29.9978 0.82075Z" fill="#0E4595"/>
<path d="M38.3679 0.563293H35.8547C35.0762 0.563293 34.4935 0.775781 34.1516 1.55283L29.3213 12.4882H32.7366C32.7366 12.4882 33.295 11.018 33.4213 10.6951C33.7945 10.6951 37.1124 10.7002 37.5867 10.7002C37.684 11.118 37.9824 12.4882 37.9824 12.4882H41.0004L38.3679 0.563293ZM34.3804 8.26847C34.6495 7.58096 35.6763 4.93278 35.6763 4.93278C35.6572 4.96453 35.9434 4.24191 36.1075 3.7939L36.3274 4.82269C36.3274 4.82269 36.9501 7.67105 37.0803 8.26828H34.3804V8.26847Z" fill="#0E4595"/>
<path d="M0.835495 0.563293L0.793945 0.811518C2.07966 1.12275 3.22799 1.57322 4.23337 2.13359L7.11931 12.4769L10.5605 12.473L15.681 0.563293H12.2355L9.05129 8.70052L8.71211 7.04676C8.69622 6.99567 8.67895 6.94449 8.66128 6.89319L7.55433 1.57071C7.35751 0.815119 6.78651 0.589626 6.08011 0.563293H0.835495Z" fill="#0E4595"/>
</svg>
